<?xml version="1.0" encoding="utf-8"?>
<!-- Generator: Adobe Illustrator 16.0.0, SVG Export Plug-In . SVG Version: 6.00 Build 0)  -->
<!DOCTYPE svg PUBLIC "-//W3C//DTD SVG 1.1//EN" "http://www.w3.org/Graphics/SVG/1.1/DTD/svg11.dtd">
<svg version="1.1" id="Layer_1" xmlns="http://www.w3.org/2000/svg" xmlns:xlink="http://www.w3.org/1999/xlink" x="0px" y="0px"
	 width="50px" height="50px" viewBox="0 0 50 50" enable-background="new 0 0 50 50" xml:space="preserve">
<g id="XMLID_138_">
	
		<radialGradient id="XMLID_2_" cx="3021.6113" cy="-4236.2231" r="493.5681" gradientTransform="matrix(0.0977 0 0 -0.0977 -280.0977 -365.0195)" gradientUnits="userSpaceOnUse">
		<stop  offset="0" style="stop-color:#FFD777"/>
		<stop  offset="0.2463" style="stop-color:#F3A655"/>
		<stop  offset="0.3793" style="stop-color:#F15D3D"/>
		<stop  offset="0.5394" style="stop-color:#D94968"/>
		<stop  offset="0.6995" style="stop-color:#C43087"/>
		<stop  offset="0.9122" style="stop-color:#7E64A7"/>
		<stop  offset="0.9852" style="stop-color:#5D6DB3"/>
	</radialGradient>
	<path id="XMLID_142_" fill="url(#XMLID_2_)" d="M47.642,9.233c-0.609-1.569-1.422-2.898-2.75-4.227
		c-1.33-1.33-2.659-2.141-4.228-2.75c-1.514-0.591-3.268-0.997-5.797-1.108C32.319,1.037,31.508,1,25.01,1
		c-6.498,0-7.31,0.019-9.857,0.147c-2.547,0.111-4.283,0.517-5.796,1.108c-1.569,0.609-2.898,1.421-4.227,2.75
		c-1.33,1.329-2.141,2.658-2.75,4.227c-0.591,1.514-0.997,3.268-1.108,5.796c-0.111,2.547-0.147,3.36-0.147,9.857
		c0,6.498,0.019,7.31,0.147,9.857c0.111,2.548,0.517,4.283,1.108,5.797c0.609,1.568,1.421,2.897,2.75,4.228
		c1.329,1.328,2.658,2.141,4.227,2.75c1.514,0.591,3.268,0.996,5.796,1.107c2.547,0.11,3.36,0.147,9.857,0.147
		c6.498,0,7.31-0.019,9.857-0.147c2.548-0.111,4.283-0.517,5.797-1.107c1.568-0.609,2.897-1.422,4.228-2.75
		c1.328-1.33,2.141-2.659,2.75-4.228c0.591-1.514,0.996-3.268,1.107-5.797c0.11-2.548,0.147-3.359,0.147-9.857
		c0-6.498-0.019-7.31-0.147-9.857C48.638,12.482,48.232,10.747,47.642,9.233z M44.448,34.541c-0.111,2.326-0.499,3.6-0.831,4.431
		c-0.425,1.106-0.96,1.92-1.791,2.75c-0.83,0.831-1.625,1.348-2.75,1.791c-0.85,0.332-2.104,0.72-4.431,0.831
		c-2.528,0.109-3.268,0.147-9.654,0.147c-6.387,0-7.144-0.019-9.654-0.147c-2.326-0.111-3.6-0.499-4.431-0.831
		c-1.107-0.425-1.919-0.96-2.75-1.791c-0.831-0.83-1.348-1.624-1.791-2.75c-0.332-0.849-0.72-2.104-0.831-4.431
		c-0.11-2.529-0.147-3.286-0.147-9.654c0-6.369,0.019-7.144,0.147-9.654c0.111-2.326,0.499-3.6,0.831-4.43
		c0.425-1.108,0.96-1.92,1.791-2.751c0.831-0.831,1.625-1.348,2.75-1.79c0.85-0.333,2.104-0.72,4.431-0.831
		c2.529-0.111,3.286-0.148,9.654-0.148s7.144,0.019,9.654,0.148c2.326,0.11,3.601,0.498,4.431,0.831
		c1.107,0.424,1.92,0.959,2.75,1.79c0.831,0.831,1.348,1.625,1.791,2.751c0.332,0.849,0.72,2.104,0.831,4.43
		c0.11,2.529,0.147,3.286,0.147,9.654C44.596,31.255,44.559,32.03,44.448,34.541z"/>
	
		<radialGradient id="XMLID_3_" cx="3071.4707" cy="-4117.71" r="253.4454" gradientTransform="matrix(0.0977 0 0 -0.0977 -280.0977 -365.0195)" gradientUnits="userSpaceOnUse">
		<stop  offset="0" style="stop-color:#FFD777"/>
		<stop  offset="0.2463" style="stop-color:#F3A655"/>
		<stop  offset="0.3793" style="stop-color:#F15D3D"/>
		<stop  offset="0.607" style="stop-color:#D94968"/>
		<stop  offset="0.8346" style="stop-color:#C43087"/>
		<stop  offset="0.9577" style="stop-color:#7E64A7"/>
		<stop  offset="1" style="stop-color:#5D6DB3"/>
	</radialGradient>
	<path id="XMLID_145_" fill="url(#XMLID_3_)" d="M24.991,12.611c-6.774,0-12.276,5.5-12.276,12.275
		c0,6.774,5.501,12.275,12.276,12.275c6.775,0,12.275-5.501,12.275-12.275C37.267,18.112,31.767,12.611,24.991,12.611z
		 M24.991,32.861c-4.393,0-7.975-3.563-7.975-7.975c0-4.394,3.563-7.975,7.975-7.975s7.975,3.563,7.975,7.975
		C32.966,29.28,29.385,32.861,24.991,32.861z"/>
	
		<radialGradient id="XMLID_4_" cx="3242.4961" cy="-3891.1919" r="59.2312" gradientTransform="matrix(0.0977 0 0 -0.0977 -280.0977 -365.0195)" gradientUnits="userSpaceOnUse">
		<stop  offset="0" style="stop-color:#5F6EB4"/>
		<stop  offset="1" style="stop-color:#5D6DB3"/>
	</radialGradient>
	<circle id="XMLID_143_" fill="url(#XMLID_4_)" cx="37.747" cy="12.131" r="2.861"/>
</g>
</svg>
