<svg xmlns="http://www.w3.org/2000/svg" width="9.397" height="13.895" viewBox="0 0 9.397 13.895">
  <g id="rupees" transform="translate(-256 -89.22)">
    <path id="Path_2" data-name="Path 2" d="M263.672,103.116h-2.209l-.865-1.089q-2.045-2.573-4.088-5.147a.185.185,0,0,1-.041-.108c.005-.38.014-.759.023-1.139a.369.369,0,0,1,.01-.056c.272.01.538.023.8.03a6.908,6.908,0,0,0,1.651-.127,2.824,2.824,0,0,0,1.318-.628,2.66,2.66,0,0,0,.79-1.429c.013-.054.022-.11.034-.17l-5.008-.029c.013-.027.018-.04.025-.052.251-.423.5-.847.757-1.269a.138.138,0,0,1,.1-.05q1.917.025,3.834.054c.024,0,.048,0,.081,0a1.81,1.81,0,0,0-.384-.535,2.563,2.563,0,0,0-1.186-.605,7.92,7.92,0,0,0-1.862-.2c-.487-.006-.974.008-1.461.014v-.017a.853.853,0,0,0,.059-.071q.4-.591.794-1.184a.132.132,0,0,1,.126-.067q4.165-.005,8.331-.013h.086c-.022.037-.035.062-.05.086-.249.391-.5.782-.745,1.174a.135.135,0,0,1-.132.072c-.713,0-1.426,0-2.139,0h-.084c.16.225.322.437.465.661a1.559,1.559,0,0,1,.253.756l2.433-.029c-.023.037-.036.059-.05.081-.249.388-.5.774-.745,1.163a.138.138,0,0,1-.132.071c-.484.007-.968.019-1.452.026-.063,0-.088.017-.1.084a4.04,4.04,0,0,1-.11.482,3.459,3.459,0,0,1-1.454,1.88,5.865,5.865,0,0,1-2.282.864c-.136.024-.272.043-.419.066.023.033.038.056.055.079l4.428,5.686C263.317,102.651,263.494,102.884,263.672,103.116Z" fill="#636363" fill-rule="evenodd"/>
  </g>
</svg>
